<svg xmlns="http://www.w3.org/2000/svg" xmlns:xlink="http://www.w3.org/1999/xlink" viewBox="0 0 339.49 235.21"><defs><style>.cls-1,.cls-2{fill:#1d1d1d;stroke-miterlimit:10;stroke-width:4px;}.cls-1{stroke:url(#linear-gradient);}.cls-2{stroke:url(#linear-gradient-2);}.cls-3{fill:url(#linear-gradient-3);}.cls-4{fill:url(#linear-gradient-4);}.cls-5{fill:url(#linear-gradient-5);}.cls-6{fill:url(#linear-gradient-6);}.cls-7{fill:url(#linear-gradient-7);}.cls-8{fill:url(#linear-gradient-8);}.cls-9{fill:url(#linear-gradient-9);}.cls-10{fill:url(#linear-gradient-10);}.cls-11{fill:url(#linear-gradient-11);}</style><linearGradient id="linear-gradient" y1="117.6" x2="216.56" y2="117.6" gradientUnits="userSpaceOnUse"><stop offset="0" stop-color="#dfc252"/><stop offset="0" stop-color="#e8cb5c"/><stop offset="0.5" stop-color="#bf9d28"/><stop offset="1" stop-color="#a98210"/></linearGradient><linearGradient id="linear-gradient-2" x1="205.78" y1="117.6" x2="339.49" y2="117.6" xlink:href="#linear-gradient"/><linearGradient id="linear-gradient-3" x1="8.11" y1="100.84" x2="41.52" y2="100.84" xlink:href="#linear-gradient"/><linearGradient id="linear-gradient-4" x1="82.6" y1="106.94" x2="100.56" y2="106.94" xlink:href="#linear-gradient"/><linearGradient id="linear-gradient-5" x1="60.03" y1="99.47" x2="71.45" y2="99.47" xlink:href="#linear-gradient"/><linearGradient id="linear-gradient-6" x1="112.61" y1="106.61" x2="151.67" y2="106.61" xlink:href="#linear-gradient"/><linearGradient id="linear-gradient-7" x1="166.12" y1="100.84" x2="186.46" y2="100.84" xlink:href="#linear-gradient"/><linearGradient id="linear-gradient-8" x1="202.39" y1="104.57" x2="215.4" y2="104.57" xlink:href="#linear-gradient"/><linearGradient id="linear-gradient-9" x1="230.2" y1="106.94" x2="252.06" y2="106.94" xlink:href="#linear-gradient"/><linearGradient id="linear-gradient-10" x1="267.83" y1="106.61" x2="292.32" y2="106.61" xlink:href="#linear-gradient"/><linearGradient id="linear-gradient-11" x1="307.54" y1="106.94" x2="325.7" y2="106.94" xlink:href="#linear-gradient"/></defs><g id="Layer_2" data-name="Layer 2"><g id="Layer_1-2" data-name="Layer 1"><path class="cls-1" d="M127.36,133v6.39h12q14.35,0,20.11,5.7t5.75,21.26v44.58q-24.75,13.47-49.35,13.48-31.54,0-56.29-26.1-24.37-25.49-27.09-67.9H2.14a127,127,0,0,0,11.38,44.23q12.92,28.68,38,44.07,23.81,14.51,53.92,14.51,47.46,0,86.57-22.29V161.67q0-20.73,22.55-22.29V133ZM54,43.47Q77.53,11,118.06,11q54.87,0,66.22,57.89h6.47V11.68h-4.58a10.65,10.65,0,0,1-7.41,2.42c-.73,0-3.68-.81-8.83-2.42Q139,2,114.43,2,59.71,2,29.28,41.05A127.85,127.85,0,0,0,10.36,74.23h28.3A108.84,108.84,0,0,1,54,43.47Z"/><path class="cls-2" d="M320,130.4H274q15.71,11.25,20.81,16.06,18.6,17.46,18.61,35.43,0,19.35-13.72,31.1Q287,223.54,268.74,223.53a49.69,49.69,0,0,1-35.32-14.17q-14.34-13.47-19.23-35.59H208l6.78,53.74h5.52a7.23,7.23,0,0,1,6.46-4q1.57,0,11.35,2.94,22.24,6.74,33.59,6.74,26.33,0,45.09-15.55,20.67-16.93,20.66-44.93Q337.49,150,320,130.4ZM248.12,74.23Q233.9,59.36,233.9,43.82q0-16.08,11-25.06,9.94-8.12,25.07-8.12,17.5,0,31.86,11.92Q315.57,33.8,322,52.29h5.52L322,7.36h-5.21C315.26,9.78,313.31,11,311,11q-3.78,0-11.19-2.77A93.24,93.24,0,0,0,267.17,2a63.13,63.13,0,0,0-29.33,6.74q-28.23,14.34-28.23,44.58A52.21,52.21,0,0,0,214,74.23Z"/><path class="cls-3" d="M41.52,104.16c-2.36.16-3.55,1.29-3.55,3.4v7.52a27.63,27.63,0,0,1-13.59,3.4,16.25,16.25,0,0,1-8.47-2.22,14.82,14.82,0,0,1-6-6.72,18.79,18.79,0,0,1-1.83-8.07,19.08,19.08,0,0,1,4.3-12.31q4.79-6,13.38-6a30.45,30.45,0,0,1,8.72,1.47,9.61,9.61,0,0,0,1.38.37,1.69,1.69,0,0,0,1.17-.37h.72V93.4h-1Q35,84.57,26.36,84.57a11.87,11.87,0,0,0-10.06,5,19,19,0,0,0-3.44,11.6q0,7.65,4.31,12a12,12,0,0,0,8.84,4,16.44,16.44,0,0,0,7.75-2v-6.81a4.48,4.48,0,0,0-.9-3.24,4.52,4.52,0,0,0-3.16-.87H27.82v-1h13.7Z"/><path class="cls-4" d="M100.56,115.29c-2.3,2-4,3-5,3-1.42,0-2.2-1.1-2.33-3.3-2.52,2.2-4.49,3.3-5.89,3.3A4.84,4.84,0,0,1,84,117.16a4.12,4.12,0,0,1-1.39-3.32,4.43,4.43,0,0,1,2.78-4.2c.62-.29,1.92-.78,3.88-1.45a17.63,17.63,0,0,0,3.84-1.71v-4.27a5.57,5.57,0,0,0-.86-3.45,3.6,3.6,0,0,0-2.85-1.56,3.49,3.49,0,0,0-2.06.74,2.41,2.41,0,0,0-1.09,1.9,2.89,2.89,0,0,0,.25,1l-3.44,1.8a3.2,3.2,0,0,1-.15-.77A4.86,4.86,0,0,1,84.51,99a14.16,14.16,0,0,1,2.6-2.22,6.19,6.19,0,0,1,3.29-1.13,6.09,6.09,0,0,1,5.33,2.87c.51.76.77,2.3.77,4.64v7.25q0,4.59.54,5a1.08,1.08,0,0,0,.77.24,3.87,3.87,0,0,0,2.48-1.19ZM93.1,114v-6.44a23.11,23.11,0,0,1-3,1.5,23.58,23.58,0,0,0-2.85,1.4,3.37,3.37,0,0,0-.55,5,2.83,2.83,0,0,0,2.13.92Q89.93,116.37,93.1,114Z"/><path class="cls-5" d="M71.45,117.61H60v-1a5.4,5.4,0,0,0,3.07-.66,3.39,3.39,0,0,0,1.14-3V86.89A3.15,3.15,0,0,0,64,85.33a1.61,1.61,0,0,0-1.31-.6l-2.28-.27v-.92l6.49-2.21h.74v32c0,2.16,1,3.24,3,3.24h.87Z"/><path class="cls-6" d="M151.67,117.61H140.25v-1h.47a3.47,3.47,0,0,0,2.58-.77c.54-.58.82-3.12.82-7.64V104c0-4.11-1.28-6.17-3.82-6.17-1.62,0-3.86,1-6.74,3v12.42a4.06,4.06,0,0,0,.64,2.68,3.49,3.49,0,0,0,2.51.67v1h-10.4v-1c1.86,0,3-.58,3.49-1.74a6.57,6.57,0,0,0,.37-2.43v-10a5.43,5.43,0,0,0-.91-3.27,3.33,3.33,0,0,0-2.85-1.4q-2.34,0-6.79,3.14v12.31c0,1.78.44,2.8,1.31,3.09a7.18,7.18,0,0,0,2.23.26v1H112.61v-1a3.46,3.46,0,0,0,2.87-1,5.2,5.2,0,0,0,.72-3.17V101.84A6.48,6.48,0,0,0,116,100a1.45,1.45,0,0,0-1.29-.92l-2-.29v-.93l6.09-2.26h.77v4.32q5.77-4.32,9-4.32a4.5,4.5,0,0,1,3.15,1.18,5.51,5.51,0,0,1,1.68,3.14c1.38-1,2.42-1.62,3.12-2a21.54,21.54,0,0,1,3.32-1.71,6.67,6.67,0,0,1,2.52-.58q5.08,0,5.08,8.17c0,4,0,7.5-.15,10.36-.05,1.62.84,2.43,2.68,2.43h1.63Z"/><path class="cls-7" d="M186.46,109.25a8.32,8.32,0,0,1-3.25,6.85,10.9,10.9,0,0,1-7.08,2.38,20.92,20.92,0,0,1-5.28-1,12.13,12.13,0,0,0-1.78-.45,1.14,1.14,0,0,0-1,.61h-.86l-1.07-8.2h1a10.18,10.18,0,0,0,3,5.43,7.94,7.94,0,0,0,5.55,2.16,7.46,7.46,0,0,0,4.85-1.61,5.84,5.84,0,0,0,2.16-4.74q0-2.75-2.93-5.41a56.4,56.4,0,0,0-5.07-3.69,35.17,35.17,0,0,1-5.5-4.27,8.94,8.94,0,0,1-2.8-6.25,7.17,7.17,0,0,1,4.43-6.8,10.11,10.11,0,0,1,4.61-1,14.86,14.86,0,0,1,5.13,1,5.72,5.72,0,0,0,1.75.42,1.1,1.1,0,0,0,.92-.55H184l.86,6.85H184a10,10,0,0,0-3.17-4.53,7.74,7.74,0,0,0-5-1.82,6.1,6.1,0,0,0-3.93,1.24,4.57,4.57,0,0,0-1.74,3.82q0,2.69,2.88,5.25c.59.52,2.27,1.7,5,3.53a34.26,34.26,0,0,1,5.6,4.4A9.44,9.44,0,0,1,186.46,109.25Z"/><path class="cls-8" d="M215.4,113.84c-1.28,3-3.12,4.43-5.55,4.43a4.48,4.48,0,0,1-3.77-1.93,7.05,7.05,0,0,1-1.33-4.35V98.6h-2.36v-.87A9.07,9.07,0,0,0,205.91,94a20.3,20.3,0,0,0,1.36-3.09h.87v5.35h7.26l-.82,2.38h-6.44v12.57a5.48,5.48,0,0,0,.84,3,2.92,2.92,0,0,0,2.5,1.53c1.11,0,2.14-.9,3.1-2.69Z"/><path class="cls-9" d="M252.06,107a11.09,11.09,0,0,1-3.09,8,10.18,10.18,0,0,1-7.65,3.33,10.41,10.41,0,0,1-9.64-5.49,12,12,0,0,1,2-14.16,10.64,10.64,0,0,1,7.53-3,10.27,10.27,0,0,1,7.75,3.21A11.35,11.35,0,0,1,252.06,107Zm-3.81,1.35a14,14,0,0,0-2.27-8q-2.26-3.36-5.53-3.36A5.67,5.67,0,0,0,236,99.36a9.06,9.06,0,0,0-2,5.88q0,6.78,3.91,10.13a5.9,5.9,0,0,0,3.94,1.58c2.33,0,4.14-1.36,5.45-4.09A10.27,10.27,0,0,0,248.25,108.33Z"/><path class="cls-10" d="M292.32,117.61H281.43v-1a4,4,0,0,0,2.89-1c.71-.75,1.07-4.81,1.07-12.15,0-2.61-.67-4.31-2-5.12a3.87,3.87,0,0,0-2-.55c-1.36,0-3.6,1.15-6.74,3.45v11.73c0,1.89.43,3,1.29,3.35a5.43,5.43,0,0,0,2.1.32v1h-10.2v-1q3.39,0,3.39-3.4V101.84a5.8,5.8,0,0,0-.17-1.79,1.7,1.7,0,0,0-1.34-.85L268,98.81V98l5.84-2.26h.82v4.19c2.46-1.64,3.85-2.54,4.16-2.72a9.84,9.84,0,0,1,4.56-1.55q5.42,0,5.42,8.12,0,4.67-.27,8.78c-.07.86-.11,1.49-.12,1.9q-.08,2.16,2.82,2.16h1.11Z"/><path class="cls-11" d="M325.7,103.9H310.89a20.28,20.28,0,0,0-.2,2.26q0,5.55,3.94,8.18a6.61,6.61,0,0,0,3.79,1.21q3.63,0,6.44-3.51l.54.66q-4.14,5.56-9,5.57-5.14,0-7.65-5.46a13.1,13.1,0,0,1-1.19-5.62q0-6.45,4.61-9.91a8.37,8.37,0,0,1,5.2-1.66q4.29,0,6,2.58a35.19,35.19,0,0,0,2.38,4.46Zm-4.26-1.4a7.19,7.19,0,0,0-2.75-5.12,4,4,0,0,0-2.26-.73q-4,0-5.37,5.85Z"/></g></g></svg>